<svg width="7.31581in" height="12.1316in" viewBox="0 0 7.31581 12.1316" xmlns="http://www.w3.org/2000/svg">
	<g transform="scale(1)">
		<path fill-rule="evenodd" stroke-width='0.015625' stroke="black" fill="gray" d="M 1.25 6.87744872
			L 1.25715785 6.90416216
			L 1.28340917 7.39762155
			L 1.28340917 7.39762155
			L 0.517451566 7.57210799
			L 0.546791098 7.86563412
			L 1.33213128 7.88505992
			L 1.40901306 8.36495292
			L 1.40901306 8.36495292
			L 0.671291249 8.63495864
			L 0.736160983 8.91644285
			L 1.51764661 8.83633806
			L 1.65925977 9.29888634
			L 1.65925977 9.29888634
			L 0.965783008 9.66797515
			L 1.06963305 9.93995702
			L 1.83262469 9.75292676
			L 2.03414929 10.1994218
			L 2.25814467 10.6398958
			L 2.49724876 11.0763215
			L 2.67510477 11.0286651
			L 2.66396215 10.5311574
			L 2.63771083 10.037698
			L 2.63771083 10.037698
			L 3.40366843 9.86321156
			L 3.3743289 9.56968542
			L 2.58898871 9.55025963
			L 2.51210693 9.07036663
			L 2.51210693 9.07036663
			L 3.24982875 8.8003609
			L 3.18495901 8.51887669
			L 2.40347338 8.59898149
			L 2.26186023 8.13643321
			L 2.26186023 8.13643321
			L 2.95533699 7.7673444
			L 2.85148695 7.49536253
			L 2.0884953 7.68239279
			L 1.88697071 7.23589773
			L 1.66297533 6.7954237
			L 1.97960994 6.47878908
			L 2.42008397 6.70278446
			L 2.42008397 6.70278446
			L 2.18821485 7.45336642
			L 2.45708571 7.57472071
			L 2.86657903 6.90430906
			L 3.32061945 7.07767398
			L 3.32061945 7.07767398
			L 3.18559036 7.85156268
			L 3.4617977 7.93612595
			L 3.78316773 7.21928714
			L 4.25455287 7.32792069
			L 4.25455287 7.32792069
			L 4.22745478 8.11303359
			L 4.514923 8.15908775
			L 4.73444587 7.40480247
			L 5.22188423 7.45352458
			L 5.71534362 7.47977591
			L 6.21285138 7.49091852
			L 6.26050775 7.31306252
			L 5.82408209 7.07395842
			L 5.38360806 6.84996305
			L 5.38360806 6.84996305
			L 5.61547718 6.09938109
			L 5.34660632 5.9780268
			L 4.937113 6.64843845
			L 4.48307258 6.47507353
			L 4.48307258 6.47507353
			L 4.61810167 5.70118483
			L 4.34189433 5.61662156
			L 4.0205243 6.33346037
			L 3.54913916 6.22482682
			L 3.54913916 6.22482682
			L 3.57623725 5.43971392
			L 3.28876903 5.39365976
			L 3.06924616 6.14794504
			L 2.5818078 6.09922293
			L 2.08834841 6.0729716
			L 1.9724521 5.64044068
			L 2.3866748 5.37097667
			L 2.3866748 5.37097667
			L 2.92076329 5.94707219
			L 3.16029461 5.77490035
			L 2.78444775 5.0850629
			L 3.16160639 4.77853482
			L 3.16160639 4.77853482
			L 3.76429911 5.28241779
			L 3.97563672 5.08549685
			L 3.51552112 4.44876284
			L 3.8452931 4.09484811
			L 3.8452931 4.09484811
			L 4.51167177 4.5108722
			L 4.69528996 4.28494449
			L 4.15182118 3.71768947
			L 4.43773494 3.31991652
			L 4.70719895 2.90569382
			L 4.96560262 2.48041077
			L 4.83540299 2.35021114
			L 4.41011994 2.6086148
			L 3.99589723 2.87807881
			L 3.99589723 2.87807881
			L 3.46180875 2.30198328
			L 3.22227742 2.47415513
			L 3.59812429 3.16399258
			L 3.22096565 3.47052065
			L 3.22096565 3.47052065
			L 2.61827292 2.96663768
			L 2.40693531 3.16355863
			L 2.86705092 3.80029264
			L 2.53727893 4.15420737
			L 2.53727893 4.15420737
			L 1.87090027 3.73818328
			L 1.68728208 3.96411099
			L 2.23075086 4.53136601
			L 1.94483709 4.92913896
			L 1.67537308 5.34336166
			L 1.25 5.25417879
			L 0.5 5.25417879
			L 0.5 6.87744872
			Z"/>
		<path fill-rule="evenodd" stroke-width='0.015625' stroke-dasharray='0.0625 0.0625' stroke="blue" fill="transparent" d="M 1.25715785 6.90416216
			L 1.66297533 6.7954237
			M 1.28340917 7.39762155
			L 1.88697071 7.23589773
			M 1.33213128 7.88505992
			L 2.0884953 7.68239279
			M 1.40901306 8.36495292
			L 2.26186023 8.13643321
			M 1.51764661 8.83633806
			L 2.40347338 8.59898149
			M 1.65925977 9.29888634
			L 2.51210693 9.07036663
			M 1.83262469 9.75292676
			L 2.58898871 9.55025963
			M 2.03414929 10.1994218
			L 2.63771083 10.037698
			M 2.25814467 10.6398958
			L 2.66396215 10.5311574
			M 1.97960994 6.47878908
			L 2.08834841 6.0729716
			M 2.42008397 6.70278446
			L 2.5818078 6.09922293
			M 2.86657903 6.90430906
			L 3.06924616 6.14794504
			M 3.32061945 7.07767398
			L 3.54913916 6.22482682
			M 3.78316773 7.21928714
			L 4.0205243 6.33346037
			M 4.25455287 7.32792069
			L 4.48307258 6.47507353
			M 4.73444587 7.40480247
			L 4.937113 6.64843845
			M 5.22188423 7.45352458
			L 5.38360806 6.84996305
			M 5.71534362 7.47977591
			L 5.82408209 7.07395842
			M 1.9724521 5.64044068
			L 1.67537308 5.34336166
			M 2.3866748 5.37097667
			L 1.94483709 4.92913896
			M 2.78444775 5.0850629
			L 2.23075086 4.53136601
			M 3.16160639 4.77853482
			L 2.53727893 4.15420737
			M 3.51552112 4.44876284
			L 2.86705092 3.80029264
			M 3.8452931 4.09484811
			L 3.22096565 3.47052065
			M 4.15182118 3.71768947
			L 3.59812429 3.16399258
			M 4.43773494 3.31991652
			L 3.99589723 2.87807881
			M 4.70719895 2.90569382
			L 4.41011994 2.6086148
			M 1.25 5.25417879
			L 1.25 6.87744872"/>
		<path fill-rule="evenodd" stroke-width='0.015625' stroke-dasharray='0.0625 0.0625' stroke="blue" fill="transparent" d="M 1.25715785 6.90416216
			L 1.66297533 6.7954237
			M 1.28340917 7.39762155
			L 1.88697071 7.23589773
			M 1.33213128 7.88505992
			L 2.0884953 7.68239279
			M 1.40901306 8.36495292
			L 2.26186023 8.13643321
			M 1.51764661 8.83633806
			L 2.40347338 8.59898149
			M 1.65925977 9.29888634
			L 2.51210693 9.07036663
			M 1.83262469 9.75292676
			L 2.58898871 9.55025963
			M 2.03414929 10.1994218
			L 2.63771083 10.037698
			M 2.25814467 10.6398958
			L 2.66396215 10.5311574
			M 1.97960994 6.47878908
			L 2.08834841 6.0729716
			M 2.42008397 6.70278446
			L 2.5818078 6.09922293
			M 2.86657903 6.90430906
			L 3.06924616 6.14794504
			M 3.32061945 7.07767398
			L 3.54913916 6.22482682
			M 3.78316773 7.21928714
			L 4.0205243 6.33346037
			M 4.25455287 7.32792069
			L 4.48307258 6.47507353
			M 4.73444587 7.40480247
			L 4.937113 6.64843845
			M 5.22188423 7.45352458
			L 5.38360806 6.84996305
			M 5.71534362 7.47977591
			L 5.82408209 7.07395842
			M 1.9724521 5.64044068
			L 1.67537308 5.34336166
			M 2.3866748 5.37097667
			L 1.94483709 4.92913896
			M 2.78444775 5.0850629
			L 2.23075086 4.53136601
			M 3.16160639 4.77853482
			L 2.53727893 4.15420737
			M 3.51552112 4.44876284
			L 2.86705092 3.80029264
			M 3.8452931 4.09484811
			L 3.22096565 3.47052065
			M 4.15182118 3.71768947
			L 3.59812429 3.16399258
			M 4.43773494 3.31991652
			L 3.99589723 2.87807881
			M 4.70719895 2.90569382
			L 4.41011994 2.6086148
			M 1.25 5.25417879
			L 1.25 6.87744872"/>
	</g>
</svg>
